<svg xmlns="http://www.w3.org/2000/svg" xmlns:xlink="http://www.w3.org/1999/xlink" version="1.1" x="0px" y="0px" viewBox="0 0 1000 1250" enable-background="new 0 0 1000 1000" xml:space="preserve"><path fill-rule="evenodd" clip-rule="evenodd" d="M730.713,522.383v0.007l-213.08,88.168c-0.035,0.015-0.064,0.029-0.101,0.044  l-0.101,0.043v-0.008c-2.6,1.07-5.443,1.681-8.432,1.681s-5.832-0.61-8.432-1.681v0.008l-0.101-0.043  c-0.036-0.015-0.064-0.029-0.101-0.044L287.284,522.39v-0.007c-7.994-3.318-13.628-11.183-13.628-20.383  c0-12.188,9.875-22.063,22.063-22.063c2.984,0,5.832,0.61,8.436,1.681l0,0l0.104,0.043c0.029,0.007,0.058,0.021,0.094,0.036  L509,566.373l204.648-84.677c0.035-0.015,0.064-0.029,0.1-0.036l0.102-0.043l0,0c2.6-1.07,5.443-1.681,8.432-1.681  c12.188,0,22.063,9.875,22.063,22.063C744.345,511.2,738.714,519.064,730.713,522.383 M730.713,446.774v0.007l-213.08,88.168  c-0.035,0.015-0.064,0.029-0.101,0.043l-0.101,0.043v-0.007c-2.6,1.07-5.443,1.681-8.432,1.681s-5.832-0.61-8.432-1.681v0.007  l-0.101-0.043c-0.036-0.014-0.064-0.028-0.101-0.043l-213.083-88.168v-0.007c-7.994-3.318-13.628-11.19-13.628-20.383  c0-9.193,5.634-17.065,13.628-20.383l0,0l213.083-88.175c0.036-0.014,0.064-0.028,0.101-0.043l0.101-0.036l0,0  c2.6-1.07,5.443-1.68,8.432-1.68s5.832,0.61,8.432,1.68l0,0l0.101,0.036c0.036,0.015,0.065,0.029,0.101,0.043l213.08,88.175l0,0  c8.001,3.318,13.632,11.19,13.632,20.383C744.345,435.584,738.714,443.456,730.713,446.774 M295.719,555.545  c2.984,0,5.832,0.61,8.436,1.681l0,0l0.104,0.043c0.029,0.007,0.058,0.021,0.094,0.036L509,641.982l204.648-84.678  c0.035-0.015,0.064-0.029,0.1-0.036l0.102-0.043l0,0c2.6-1.07,5.443-1.681,8.432-1.681c12.188,0,22.063,9.875,22.063,22.063  c0,9.193-5.631,17.065-13.632,20.383v0.007l-213.08,88.168c-0.035,0.015-0.064,0.029-0.101,0.044l-0.101,0.043v-0.007  c-2.6,1.069-5.443,1.68-8.432,1.68s-5.832-0.61-8.432-1.68v0.007l-0.101-0.043c-0.036-0.015-0.064-0.029-0.101-0.044  l-213.083-88.168v-0.007c-7.994-3.317-13.628-11.189-13.628-20.383C273.656,565.42,283.531,555.545,295.719,555.545"/><text x="0" y="1015" fill="#000000" font-size="5px" font-weight="bold" font-family="'Helvetica Neue', Helvetica, Arial-Unicode, Arial, Sans-serif">Created by Kirill Zorenkov</text><text x="0" y="1020" fill="#000000" font-size="5px" font-weight="bold" font-family="'Helvetica Neue', Helvetica, Arial-Unicode, Arial, Sans-serif">from the Noun Project</text></svg>